<mxfile host="app.diagrams.net" agent="Mozilla/5.0 (Windows NT 10.0; Win64; x64) AppleWebKit/537.36 (KHTML, like Gecko) Chrome/140.0.0.0 Safari/537.36 Edg/140.0.0.0" version="28.2.3">
  <diagram name="Página-1" id="vp-BJkbBIR0ZyAkBC735">
    <mxGraphModel dx="1418" dy="786" grid="1" gridSize="10" guides="1" tooltips="1" connect="1" arrows="1" fold="1" page="1" pageScale="1" pageWidth="1169" pageHeight="827" math="0" shadow="0">
      <root>
        <mxCell id="0" />
        <mxCell id="1" parent="0" />
        <mxCell id="HV2GFjXc2rtUskFAwe9_-1" value="Usuario" style="swimlane;fontStyle=1;align=center;verticalAlign=top;childLayout=stackLayout;horizontal=1;startSize=26;horizontalStack=0;resizeParent=1;resizeParentMax=0;resizeLast=0;collapsible=1;marginBottom=0;whiteSpace=wrap;html=1;" vertex="1" parent="1">
          <mxGeometry x="190" y="140" width="190" height="150" as="geometry" />
        </mxCell>
        <mxCell id="HV2GFjXc2rtUskFAwe9_-2" value="+ Nombre: string" style="text;strokeColor=none;fillColor=none;align=left;verticalAlign=top;spacingLeft=4;spacingRight=4;overflow=hidden;rotatable=0;points=[[0,0.5],[1,0.5]];portConstraint=eastwest;whiteSpace=wrap;html=1;" vertex="1" parent="HV2GFjXc2rtUskFAwe9_-1">
          <mxGeometry y="26" width="190" height="26" as="geometry" />
        </mxCell>
        <mxCell id="HV2GFjXc2rtUskFAwe9_-5" value="+ Contraseña: string" style="text;strokeColor=none;fillColor=none;align=left;verticalAlign=top;spacingLeft=4;spacingRight=4;overflow=hidden;rotatable=0;points=[[0,0.5],[1,0.5]];portConstraint=eastwest;whiteSpace=wrap;html=1;" vertex="1" parent="HV2GFjXc2rtUskFAwe9_-1">
          <mxGeometry y="52" width="190" height="26" as="geometry" />
        </mxCell>
        <mxCell id="HV2GFjXc2rtUskFAwe9_-3" value="" style="line;strokeWidth=1;fillColor=none;align=left;verticalAlign=middle;spacingTop=-1;spacingLeft=3;spacingRight=3;rotatable=0;labelPosition=right;points=[];portConstraint=eastwest;strokeColor=inherit;" vertex="1" parent="HV2GFjXc2rtUskFAwe9_-1">
          <mxGeometry y="78" width="190" height="8" as="geometry" />
        </mxCell>
        <mxCell id="HV2GFjXc2rtUskFAwe9_-4" value="+ Iniciarsesion(string,string): string" style="text;strokeColor=none;fillColor=none;align=left;verticalAlign=top;spacingLeft=4;spacingRight=4;overflow=hidden;rotatable=0;points=[[0,0.5],[1,0.5]];portConstraint=eastwest;whiteSpace=wrap;html=1;" vertex="1" parent="HV2GFjXc2rtUskFAwe9_-1">
          <mxGeometry y="86" width="190" height="34" as="geometry" />
        </mxCell>
        <mxCell id="HV2GFjXc2rtUskFAwe9_-6" value="+ Registro(string,string): bool" style="text;strokeColor=none;fillColor=none;align=left;verticalAlign=top;spacingLeft=4;spacingRight=4;overflow=hidden;rotatable=0;points=[[0,0.5],[1,0.5]];portConstraint=eastwest;whiteSpace=wrap;html=1;" vertex="1" parent="HV2GFjXc2rtUskFAwe9_-1">
          <mxGeometry y="120" width="190" height="30" as="geometry" />
        </mxCell>
        <mxCell id="HV2GFjXc2rtUskFAwe9_-8" value="imagen" style="swimlane;fontStyle=1;align=center;verticalAlign=top;childLayout=stackLayout;horizontal=1;startSize=26;horizontalStack=0;resizeParent=1;resizeParentMax=0;resizeLast=0;collapsible=1;marginBottom=0;whiteSpace=wrap;html=1;" vertex="1" parent="1">
          <mxGeometry x="490" y="140" width="420" height="500" as="geometry" />
        </mxCell>
        <mxCell id="HV2GFjXc2rtUskFAwe9_-9" value="+ Nombre: string" style="text;strokeColor=none;fillColor=none;align=left;verticalAlign=top;spacingLeft=4;spacingRight=4;overflow=hidden;rotatable=0;points=[[0,0.5],[1,0.5]];portConstraint=eastwest;whiteSpace=wrap;html=1;" vertex="1" parent="HV2GFjXc2rtUskFAwe9_-8">
          <mxGeometry y="26" width="420" height="26" as="geometry" />
        </mxCell>
        <mxCell id="HV2GFjXc2rtUskFAwe9_-10" value="+ Tipo: string" style="text;strokeColor=none;fillColor=none;align=left;verticalAlign=top;spacingLeft=4;spacingRight=4;overflow=hidden;rotatable=0;points=[[0,0.5],[1,0.5]];portConstraint=eastwest;whiteSpace=wrap;html=1;" vertex="1" parent="HV2GFjXc2rtUskFAwe9_-8">
          <mxGeometry y="52" width="420" height="26" as="geometry" />
        </mxCell>
        <mxCell id="HV2GFjXc2rtUskFAwe9_-18" value="+ Cadena: base64" style="text;strokeColor=none;fillColor=none;align=left;verticalAlign=top;spacingLeft=4;spacingRight=4;overflow=hidden;rotatable=0;points=[[0,0.5],[1,0.5]];portConstraint=eastwest;whiteSpace=wrap;html=1;" vertex="1" parent="HV2GFjXc2rtUskFAwe9_-8">
          <mxGeometry y="78" width="420" height="26" as="geometry" />
        </mxCell>
        <mxCell id="HV2GFjXc2rtUskFAwe9_-11" value="" style="line;strokeWidth=1;fillColor=none;align=left;verticalAlign=middle;spacingTop=-1;spacingLeft=3;spacingRight=3;rotatable=0;labelPosition=right;points=[];portConstraint=eastwest;strokeColor=inherit;" vertex="1" parent="HV2GFjXc2rtUskFAwe9_-8">
          <mxGeometry y="104" width="420" height="8" as="geometry" />
        </mxCell>
        <mxCell id="HV2GFjXc2rtUskFAwe9_-12" value="+ Iniciar(string,string,string): void" style="text;strokeColor=none;fillColor=none;align=left;verticalAlign=top;spacingLeft=4;spacingRight=4;overflow=hidden;rotatable=0;points=[[0,0.5],[1,0.5]];portConstraint=eastwest;whiteSpace=wrap;html=1;" vertex="1" parent="HV2GFjXc2rtUskFAwe9_-8">
          <mxGeometry y="112" width="420" height="34" as="geometry" />
        </mxCell>
        <mxCell id="HV2GFjXc2rtUskFAwe9_-13" value="+ convertirEscalaGrises(entrada: cadena, salida: cadena):booleano" style="text;strokeColor=none;fillColor=none;align=left;verticalAlign=top;spacingLeft=4;spacingRight=4;overflow=hidden;rotatable=0;points=[[0,0.5],[1,0.5]];portConstraint=eastwest;whiteSpace=wrap;html=1;" vertex="1" parent="HV2GFjXc2rtUskFAwe9_-8">
          <mxGeometry y="146" width="420" height="30" as="geometry" />
        </mxCell>
        <mxCell id="HV2GFjXc2rtUskFAwe9_-19" value="+ redimensionar(entrada: cadena, salida: cadena, ancho: entero, alto: entero): booleano" style="text;strokeColor=none;fillColor=none;align=left;verticalAlign=top;spacingLeft=4;spacingRight=4;overflow=hidden;rotatable=0;points=[[0,0.5],[1,0.5]];portConstraint=eastwest;whiteSpace=wrap;html=1;" vertex="1" parent="HV2GFjXc2rtUskFAwe9_-8">
          <mxGeometry y="176" width="420" height="44" as="geometry" />
        </mxCell>
        <mxCell id="HV2GFjXc2rtUskFAwe9_-20" value="+&amp;nbsp;&lt;span style=&quot;background-color: transparent;&quot;&gt;recortar(entrada: cadena, salida: cadena, x: entero, y: entero, ancho: entero, alto: entero): booleano&lt;/span&gt;&lt;div&gt;&lt;span style=&quot;background-color: transparent; color: light-dark(rgb(0, 0, 0), rgb(255, 255, 255));&quot;&gt;&lt;br&gt;&lt;/span&gt;&lt;/div&gt;" style="text;strokeColor=none;fillColor=none;align=left;verticalAlign=top;spacingLeft=4;spacingRight=4;overflow=hidden;rotatable=0;points=[[0,0.5],[1,0.5]];portConstraint=eastwest;whiteSpace=wrap;html=1;" vertex="1" parent="HV2GFjXc2rtUskFAwe9_-8">
          <mxGeometry y="220" width="420" height="40" as="geometry" />
        </mxCell>
        <mxCell id="HV2GFjXc2rtUskFAwe9_-21" value="+&amp;nbsp;rotar(entrada: cadena, salida: cadena, angulo: real): booleano" style="text;strokeColor=none;fillColor=none;align=left;verticalAlign=top;spacingLeft=4;spacingRight=4;overflow=hidden;rotatable=0;points=[[0,0.5],[1,0.5]];portConstraint=eastwest;whiteSpace=wrap;html=1;" vertex="1" parent="HV2GFjXc2rtUskFAwe9_-8">
          <mxGeometry y="260" width="420" height="30" as="geometry" />
        </mxCell>
        <mxCell id="HV2GFjXc2rtUskFAwe9_-22" value="+&amp;nbsp;reflejar(entrada: cadena, salida: cadena, horizontal: booleano): booleano" style="text;strokeColor=none;fillColor=none;align=left;verticalAlign=top;spacingLeft=4;spacingRight=4;overflow=hidden;rotatable=0;points=[[0,0.5],[1,0.5]];portConstraint=eastwest;whiteSpace=wrap;html=1;" vertex="1" parent="HV2GFjXc2rtUskFAwe9_-8">
          <mxGeometry y="290" width="420" height="30" as="geometry" />
        </mxCell>
        <mxCell id="HV2GFjXc2rtUskFAwe9_-24" value="+ desenfocar(entrada: cadena, salida: cadena, radio: real): booleano" style="text;strokeColor=none;fillColor=none;align=left;verticalAlign=top;spacingLeft=4;spacingRight=4;overflow=hidden;rotatable=0;points=[[0,0.5],[1,0.5]];portConstraint=eastwest;whiteSpace=wrap;html=1;" vertex="1" parent="HV2GFjXc2rtUskFAwe9_-8">
          <mxGeometry y="320" width="420" height="30" as="geometry" />
        </mxCell>
        <mxCell id="HV2GFjXc2rtUskFAwe9_-25" value="+ perfilar(entrada: cadena, salida: cadena, intensidad: real): booleano" style="text;strokeColor=none;fillColor=none;align=left;verticalAlign=top;spacingLeft=4;spacingRight=4;overflow=hidden;rotatable=0;points=[[0,0.5],[1,0.5]];portConstraint=eastwest;whiteSpace=wrap;html=1;" vertex="1" parent="HV2GFjXc2rtUskFAwe9_-8">
          <mxGeometry y="350" width="420" height="30" as="geometry" />
        </mxCell>
        <mxCell id="HV2GFjXc2rtUskFAwe9_-26" value="+ ajustarBrilloContraste(entrada: cadena, salida: cadena, brillo: real, contraste: real): booleano" style="text;strokeColor=none;fillColor=none;align=left;verticalAlign=top;spacingLeft=4;spacingRight=4;overflow=hidden;rotatable=0;points=[[0,0.5],[1,0.5]];portConstraint=eastwest;whiteSpace=wrap;html=1;" vertex="1" parent="HV2GFjXc2rtUskFAwe9_-8">
          <mxGeometry y="380" width="420" height="40" as="geometry" />
        </mxCell>
        <mxCell id="HV2GFjXc2rtUskFAwe9_-27" value="+ insertarMarcaAgua(entrada: cadena, salida: cadena, texto: cadena, opciones: Mapa):booleano" style="text;strokeColor=none;fillColor=none;align=left;verticalAlign=top;spacingLeft=4;spacingRight=4;overflow=hidden;rotatable=0;points=[[0,0.5],[1,0.5]];portConstraint=eastwest;whiteSpace=wrap;html=1;" vertex="1" parent="HV2GFjXc2rtUskFAwe9_-8">
          <mxGeometry y="420" width="420" height="40" as="geometry" />
        </mxCell>
        <mxCell id="HV2GFjXc2rtUskFAwe9_-28" value="+ convertirFormato(entrada: cadena, salida: cadena, formato: cadena): booleano" style="text;strokeColor=none;fillColor=none;align=left;verticalAlign=top;spacingLeft=4;spacingRight=4;overflow=hidden;rotatable=0;points=[[0,0.5],[1,0.5]];portConstraint=eastwest;whiteSpace=wrap;html=1;" vertex="1" parent="HV2GFjXc2rtUskFAwe9_-8">
          <mxGeometry y="460" width="420" height="40" as="geometry" />
        </mxCell>
        <mxCell id="HV2GFjXc2rtUskFAwe9_-14" value="" style="endArrow=none;html=1;rounded=0;align=center;verticalAlign=top;endFill=0;labelBackgroundColor=none;entryX=0;entryY=0.5;entryDx=0;entryDy=0;exitX=1;exitY=0.5;exitDx=0;exitDy=0;" edge="1" parent="1" source="HV2GFjXc2rtUskFAwe9_-5" target="HV2GFjXc2rtUskFAwe9_-10">
          <mxGeometry relative="1" as="geometry">
            <mxPoint x="420" y="220" as="sourcePoint" />
            <mxPoint x="480" y="360" as="targetPoint" />
          </mxGeometry>
        </mxCell>
        <mxCell id="HV2GFjXc2rtUskFAwe9_-15" value="1..*" style="resizable=0;html=1;align=left;verticalAlign=bottom;labelBackgroundColor=none;" connectable="0" vertex="1" parent="HV2GFjXc2rtUskFAwe9_-14">
          <mxGeometry x="-1" relative="1" as="geometry" />
        </mxCell>
        <mxCell id="HV2GFjXc2rtUskFAwe9_-16" value="" style="resizable=0;html=1;align=left;verticalAlign=top;labelBackgroundColor=none;" connectable="0" vertex="1" parent="HV2GFjXc2rtUskFAwe9_-14">
          <mxGeometry x="-1" relative="1" as="geometry" />
        </mxCell>
        <mxCell id="HV2GFjXc2rtUskFAwe9_-17" value="1" style="resizable=0;html=1;align=right;verticalAlign=bottom;labelBackgroundColor=none;" connectable="0" vertex="1" parent="HV2GFjXc2rtUskFAwe9_-14">
          <mxGeometry x="1" relative="1" as="geometry" />
        </mxCell>
      </root>
    </mxGraphModel>
  </diagram>
</mxfile>
